<mxfile host="app.diagrams.net" agent="Mozilla/5.0 (Windows NT 10.0; Win64; x64) AppleWebKit/537.36 (KHTML, like Gecko) Chrome/134.0.0.0 Safari/537.36" version="26.1.1">
  <diagram name="Page-1" id="CIZB44otQ4gg7fMf4ZWZ">
    <mxGraphModel dx="1500" dy="933" grid="1" gridSize="10" guides="1" tooltips="1" connect="1" arrows="1" fold="1" page="1" pageScale="1" pageWidth="850" pageHeight="1100" math="0" shadow="0">
      <root>
        <mxCell id="0" />
        <mxCell id="1" parent="0" />
        <mxCell id="WueEAgcvYy96qv5-CncF-2" value="" style="whiteSpace=wrap;html=1;verticalAlign=top;pointerEvents=1;dashed=0;strokeWidth=2;rounded=1;" vertex="1" parent="1">
          <mxGeometry x="361" y="480" width="225.5" height="99" as="geometry" />
        </mxCell>
        <mxCell id="WueEAgcvYy96qv5-CncF-7" value="&lt;font style=&quot;font-size: 18px;&quot;&gt;&lt;b&gt;LLM or Gen AI Model&lt;/b&gt;&lt;/font&gt;" style="text;html=1;align=center;verticalAlign=middle;whiteSpace=wrap;rounded=0;fontColor=light-dark(#140000, #ededed);" vertex="1" parent="1">
          <mxGeometry x="365.5" y="497" width="218" height="56.5" as="geometry" />
        </mxCell>
        <mxCell id="WueEAgcvYy96qv5-CncF-29" style="edgeStyle=orthogonalEdgeStyle;rounded=0;orthogonalLoop=1;jettySize=auto;html=1;verticalAlign=top;" edge="1" parent="1" source="WueEAgcvYy96qv5-CncF-11">
          <mxGeometry relative="1" as="geometry">
            <mxPoint x="467.75" y="580" as="targetPoint" />
          </mxGeometry>
        </mxCell>
        <mxCell id="WueEAgcvYy96qv5-CncF-30" value="Prompts" style="edgeLabel;html=1;align=center;verticalAlign=middle;resizable=0;points=[];" vertex="1" connectable="0" parent="WueEAgcvYy96qv5-CncF-29">
          <mxGeometry x="-0.0261" y="4" relative="1" as="geometry">
            <mxPoint as="offset" />
          </mxGeometry>
        </mxCell>
        <mxCell id="WueEAgcvYy96qv5-CncF-11" value="&lt;b&gt;Chat Interface&lt;/b&gt;" style="rounded=1;whiteSpace=wrap;html=1;" vertex="1" parent="1">
          <mxGeometry x="380" y="700" width="175.5" height="70" as="geometry" />
        </mxCell>
        <mxCell id="WueEAgcvYy96qv5-CncF-21" style="edgeStyle=orthogonalEdgeStyle;rounded=0;orthogonalLoop=1;jettySize=auto;html=1;" edge="1" parent="1" source="WueEAgcvYy96qv5-CncF-18">
          <mxGeometry relative="1" as="geometry">
            <mxPoint x="400" y="770" as="targetPoint" />
            <Array as="points">
              <mxPoint x="400" y="940" />
              <mxPoint x="400" y="770" />
            </Array>
          </mxGeometry>
        </mxCell>
        <mxCell id="WueEAgcvYy96qv5-CncF-23" value="Text" style="edgeLabel;html=1;align=center;verticalAlign=middle;resizable=0;points=[];" vertex="1" connectable="0" parent="WueEAgcvYy96qv5-CncF-21">
          <mxGeometry x="0.3129" y="4" relative="1" as="geometry">
            <mxPoint y="-1" as="offset" />
          </mxGeometry>
        </mxCell>
        <mxCell id="WueEAgcvYy96qv5-CncF-25" value="&lt;font style=&quot;font-size: 18px;&quot;&gt;Input&lt;/font&gt;" style="edgeLabel;html=1;align=center;verticalAlign=middle;resizable=0;points=[];" vertex="1" connectable="0" parent="WueEAgcvYy96qv5-CncF-21">
          <mxGeometry x="0.2993" y="5" relative="1" as="geometry">
            <mxPoint y="-1" as="offset" />
          </mxGeometry>
        </mxCell>
        <mxCell id="WueEAgcvYy96qv5-CncF-18" value="" style="shape=actor;whiteSpace=wrap;html=1;" vertex="1" parent="1">
          <mxGeometry x="440" y="910" width="40" height="60" as="geometry" />
        </mxCell>
        <mxCell id="WueEAgcvYy96qv5-CncF-22" style="edgeStyle=orthogonalEdgeStyle;rounded=0;orthogonalLoop=1;jettySize=auto;html=1;entryX=0.9;entryY=0.5;entryDx=0;entryDy=0;entryPerimeter=0;" edge="1" parent="1" source="WueEAgcvYy96qv5-CncF-11" target="WueEAgcvYy96qv5-CncF-18">
          <mxGeometry relative="1" as="geometry">
            <Array as="points">
              <mxPoint x="540" y="940" />
            </Array>
          </mxGeometry>
        </mxCell>
        <mxCell id="WueEAgcvYy96qv5-CncF-26" value="&lt;font style=&quot;font-size: 18px;&quot;&gt;Accurate Response&lt;/font&gt;" style="edgeLabel;html=1;align=center;verticalAlign=middle;resizable=0;points=[];" vertex="1" connectable="0" parent="WueEAgcvYy96qv5-CncF-22">
          <mxGeometry x="-0.3565" y="2" relative="1" as="geometry">
            <mxPoint as="offset" />
          </mxGeometry>
        </mxCell>
      </root>
    </mxGraphModel>
  </diagram>
</mxfile>
